<svg width="1000" height="1000" viewBox="0 0 1000 1000" xmlns="http://www.w3.org/2000/svg"><defs/><path fill="#777777" transform="matrix(0.8604247393761587 0 0 0.8604247393761587 8.329153677727728 58.058647268810866)" d="M 195.57722330193 550.93046513971 C 194.97722330193 550.83046513971 194.37722330193 551.23046513971 194.17722330193 551.83046513971 C 192.17722330193 561.23046513971 193.47722330193 571.33046513971 197.77722330193 580.13046513971 C 199.97722330193 584.53046513971 202.87722330193 588.53046513971 206.27722330193 591.93046513971 C 209.67722330193 595.43046513971 213.67722330193 598.33046513971 218.07722330193 600.53046513971 C 226.77722330193 604.93046513971 236.87722330193 606.53046513971 246.47722330193 604.73046513971 C 256.07722330193 603.13046513971 264.97722330193 598.23046513971 271.37722330193 591.23046513971 L 271.37722330193 591.23046513971 C 271.67722330193 590.83046513971 271.67722330193 590.33046513971 271.37722330193 589.93046513971 C 271.07722330193 589.53046513971 270.47722330193 589.53046513971 270.07722330193 589.83046513971 C 263.37722330193 596.03046513971 254.87722330193 600.03046513971 245.97722330193 601.33046513971 C 237.07722330193 602.53046513971 227.87722330193 601.03046513971 219.97722330193 596.93046513971 C 216.07722330193 594.93046513971 212.37722330193 592.13046513971 209.27722330193 589.13046513971 C 206.07722330193 585.93046513971 203.37722330193 582.33046513971 201.37722330193 578.43046513971 C 197.17722330193 570.53046513971 195.47722330193 561.33046513971 196.47722330193 552.33046513971 C 196.47722330193 551.63046513971 196.17722330193 551.03046513971 195.57722330193 550.93046513971 Z"/><path fill="#777777" transform="matrix(0.8604247393761587 0 0 0.8604247393761587 8.329153677727728 58.058647268810866)" d="M 433.67722330193 550.73046513971 C 432.97722330193 550.63046513971 432.27722330193 551.03046513971 432.07722330193 551.83046513971 C 430.27722330193 561.33046513971 431.67722330193 571.33046513971 435.97722330193 580.03046513971 C 438.17722330193 584.33046513971 441.07722330193 588.33046513971 444.47722330193 591.83046513971 C 447.87722330193 595.33046513971 451.87722330193 598.23046513971 456.27722330193 600.43046513971 C 464.97722330193 604.83046513971 475.07722330193 606.43046513971 484.57722330193 604.73046513971 C 494.17722330193 603.13046513971 503.07722330193 598.33046513971 509.67722330193 591.43046513971 L 509.67722330193 591.43046513971 C 510.07722330193 591.03046513971 510.07722330193 590.33046513971 509.67722330193 589.83046513971 C 509.27722330193 589.33046513971 508.47722330193 589.33046513971 508.07722330193 589.83046513971 C 501.47722330193 596.13046513971 492.97722330193 600.23046513971 484.07722330193 601.53046513971 C 475.17722330193 602.83046513971 465.97722330193 601.33046513971 457.97722330193 597.23046513971 C 453.97722330193 595.13046513971 450.37722330193 592.43046513971 447.17722330193 589.33046513971 C 443.97722330193 586.13046513971 441.27722330193 582.53046513971 439.27722330193 578.53046513971 C 435.07722330193 570.63046513971 433.47722330193 561.33046513971 434.67722330193 552.43046513971 C 434.77722330193 551.53046513971 434.37722330193 550.83046513971 433.67722330193 550.73046513971 Z"/><path transform="matrix(0.8604247393761587 0 0 0.8604247393761587 8.329153677727728 58.058647268810866)" d="M 530.07722330193 506.33046513971 C 515.97722330193 492.23046513971 497.27722330193 484.53046513971 477.37722330193 484.53046513971 C 467.97722330193 484.53046513971 458.87722330193 486.33046513971 450.37722330193 489.63046513971 L 438.27722330193 467.23046513971 C 435.77722330193 469.23046513971 433.17722330193 471.13046513971 430.77722330193 473.13046513971 C 430.17722330193 473.73046513971 426.87722330193 476.53046513971 423.57722330193 478.73046513971 L 469.17722330193 563.53046513971 C 470.87722330193 566.63046513971 473.97722330193 568.33046513971 477.27722330193 568.33046513971 C 478.77722330193 568.33046513971 480.17722330193 567.93046513971 481.57722330193 567.23046513971 C 486.07722330193 564.83046513971 487.67722330193 559.23046513971 485.37722330193 554.83046513971 L 459.07722330193 505.93046513971 C 464.87722330193 503.93046513971 470.97722330193 502.93046513971 477.27722330193 502.93046513971 C 492.27722330193 502.93046513971 506.37722330193 508.83046513971 517.07722330193 519.43046513971 C 538.97722330193 541.33046513971 538.97722330193 577.03046513971 517.07722330193 598.93046513971 C 506.47722330193 609.53046513971 492.37722330193 615.43046513971 477.27722330193 615.43046513971 C 462.27722330193 615.43046513971 448.17722330193 609.53046513971 437.47722330193 598.93046513971 C 415.57722330193 577.03046513971 415.57722330193 541.33046513971 437.47722330193 519.43046513971 C 437.67722330193 519.23046513971 437.87722330193 519.03046513971 438.17722330193 518.83046513971 L 429.27722330193 502.13046513971 C 427.67722330193 503.53046513971 426.07722330193 504.93046513971 424.57722330193 506.43046513971 C 395.47722330193 535.53046513971 395.47722330193 582.83046513971 424.57722330193 611.93046513971 C 438.67722330193 626.03046513971 457.37722330193 633.73046513971 477.27722330193 633.73046513971 C 497.17722330193 633.73046513971 515.87722330193 625.93046513971 529.97722330193 611.93046513971 C 559.17722330193 582.73046513971 559.17722330193 535.43046513971 530.07722330193 506.33046513971 Z"/><path transform="matrix(0.8604247393761587 0 0 0.8604247393761587 8.329153677727728 58.058647268810866)" d="M 231.87722330193 465.83046513971 C 231.87722330193 466.13046513971 231.77722330193 466.33046513971 231.77722330193 466.63046513971 L 231.77722330193 556.93046513971 L 246.77722330193 542.13046513971 L 246.77722330193 503.43046513971 C 256.77722330193 504.73046513971 266.17722330193 508.73046513971 274.17722330193 515.03046513971 L 287.27722330193 502.03046513971 C 275.77722330193 492.33046513971 261.77722330193 486.43046513971 246.77722330193 484.93046513971 L 246.77722330193 466.63046513971 C 246.77722330193 465.73046513971 246.57722330193 464.83046513971 246.27722330193 463.93046513971 C 252.77722330193 461.13046513971 257.57722330193 455.63046513971 263.57722330193 451.13046513971 C 272.17722330193 444.83046513971 290.47722330193 452.93046513971 296.57722330193 442.03046513971 C 306.17722330193 425.13046513971 253.67722330193 426.73046513971 247.37722330193 426.53046513971 C 235.27722330193 426.23046513971 200.97722330193 423.83046513971 207.57722330193 444.83046513971 C 206.67722330193 459.23046513971 219.47722330193 465.03046513971 231.87722330193 465.83046513971 Z"/><path transform="matrix(0.8604247393761587 0 0 0.8604247393761587 8.329153677727728 58.058647268810866)" d="M 279.07722330193 598.83046513971 C 268.47722330193 609.43046513971 254.37722330193 615.33046513971 239.27722330193 615.33046513971 C 224.27722330193 615.33046513971 210.17722330193 609.43046513971 199.47722330193 598.83046513971 C 177.57722330193 576.93046513971 177.57722330193 541.23046513971 199.47722330193 519.33046513971 C 206.77722330193 512.03046513971 215.77722330193 507.03046513971 225.47722330193 504.63046513971 L 225.47722330193 485.83046513971 C 210.77722330193 488.53046513971 197.27722330193 495.63046513971 186.47722330193 506.43046513971 C 157.37722330193 535.53046513971 157.37722330193 582.83046513971 186.47722330193 611.93046513971 C 200.57722330193 626.03046513971 219.27722330193 633.73046513971 239.17722330193 633.73046513971 C 259.07722330193 633.73046513971 277.77722330193 625.93046513971 291.87722330193 611.93046513971 C 305.87722330193 597.93046513971 313.17722330193 579.63046513971 313.67722330193 561.13046513971 L 293.17722330193 574.83046513971 C 290.67722330193 583.53046513971 285.97722330193 591.83046513971 279.07722330193 598.83046513971 Z"/><path transform="matrix(0.8604247393761587 0 0 0.8604247393761587 8.329153677727728 58.058647268810866)" d="M 417.17722330193 466.53046513971 L 433.07722330193 457.33046513971 L 410.67722330193 415.73046513971 L 438.27722330193 409.83046513971 C 442.67722330193 408.83046513971 445.57722330193 404.53046513971 444.57722330193 400.03046513971 C 443.57722330193 395.63046513971 439.27722330193 392.73046513971 434.77722330193 393.73046513971 L 358.67722330193 410.13046513971 C 354.27722330193 411.13046513971 351.37722330193 415.43046513971 352.37722330193 419.93046513971 C 353.17722330193 423.83046513971 356.57722330193 426.43046513971 360.37722330193 426.43046513971 C 360.97722330193 426.43046513971 361.57722330193 426.33046513971 362.07722330193 426.23046513971 L 391.87722330193 419.83046513971 L 417.17722330193 466.53046513971 Z"/><path fill="#777777" transform="matrix(0.8604247393761587 0 0 0.8604247393761587 8.329153677727728 58.058647268810866)" d="M 465.07722330193 446.83046513971 L 384.67722330193 492.53046513971 L 382.57722330193 461.23046513971 L 305.27722330193 526.23046513971 L 303.57722330193 494.63046513971 L 221.67722330193 575.73046513971 L 289.67722330193 537.43046513971 L 290.27722330193 569.23046513971 L 363.67722330193 519.73046513971 L 366.07722330193 546.33046513971 Z"/><path id="text" transform="matrix(1.2344229927773063 0 0 1.2344229927773063 427.50658571954017 111.96298028399457)" d="M 77.10783860678 288.04288270264 L 105.90783860678 288.04288270264 L 105.90783860678 297.64288270264 L 87.66783860678 297.64288270264 L 87.66783860678 315.40288270264 L 102.16383860678 315.40288270264 L 102.16383860678 325.00288270264 L 87.66783860678 325.00288270264 L 87.66783860678 345.64288270264 L 105.90783860678 345.64288270264 L 105.90783860678 355.24288270264 L 77.10783860678 355.24288270264 L 77.10783860678 288.04288270264 Z M 92.46783860678 272.49088270264 L 103.98783860678 272.49088270264 L 93.71583860678 283.53088270264 L 85.74783860678 283.53088270264 L 92.46783860678 272.49088270264 Z M 115.26783860678 351.88288270264 C 112.61183860678 349.00288270264 111.28383860678 344.93888270264 111.28383860678 339.69088270264 L 111.28383860678 303.59488270264 C 111.28383860678 298.34688270264 112.61183860678 294.28288270264 115.26783860678 291.40288270264 C 117.92383860678 288.52288270264 121.77983860678 287.08288270264 126.83583860678 287.08288270264 C 131.89183860678 287.08288270264 135.74783860678 288.52288270264 138.40383860678 291.40288270264 C 141.05983860678 294.28288270264 142.38783860678 298.34688270264 142.38783860678 303.59488270264 L 142.38783860678 310.69888270264 L 132.40383860678 310.69888270264 L 132.40383860678 302.92288270264 C 132.40383860678 298.76288270264 130.64383860678 296.68288270264 127.12383860678 296.68288270264 C 123.60383860678 296.68288270264 121.84383860678 298.76288270264 121.84383860678 302.92288270264 L 121.84383860678 340.45888270264 C 121.84383860678 344.55488270264 123.60383860678 346.60288270264 127.12383860678 346.60288270264 C 130.64383860678 346.60288270264 132.40383860678 344.55488270264 132.40383860678 340.45888270264 L 132.40383860678 330.18688270264 L 142.38783860678 330.18688270264 L 142.38783860678 339.69088270264 C 142.38783860678 344.93888270264 141.05983860678 349.00288270264 138.40383860678 351.88288270264 C 135.74783860678 354.76288270264 131.89183860678 356.20288270264 126.83583860678 356.20288270264 C 121.77983860678 356.20288270264 117.92383860678 354.76288270264 115.26783860678 351.88288270264 Z M 152.27583860678 351.78688270264 C 149.52383860678 348.84288270264 148.14783860678 344.68288270264 148.14783860678 339.30688270264 L 148.14783860678 303.97888270264 C 148.14783860678 298.60288270264 149.52383860678 294.44288270264 152.27583860678 291.49888270264 C 155.02783860678 288.55488270264 158.99583860678 287.08288270264 164.17983860678 287.08288270264 C 169.36383860678 287.08288270264 173.33183860678 288.55488270264 176.08383860678 291.49888270264 C 178.83583860678 294.44288270264 180.21183860678 298.60288270264 180.21183860678 303.97888270264 L 180.21183860678 339.30688270264 C 180.21183860678 344.68288270264 178.83583860678 348.84288270264 176.08383860678 351.78688270264 C 173.33183860678 354.73088270264 169.36383860678 356.20288270264 164.17983860678 356.20288270264 C 158.99583860678 356.20288270264 155.02783860678 354.73088270264 152.27583860678 351.78688270264 Z M 169.65183860678 339.97888270264 L 169.65183860678 303.30688270264 C 169.65183860678 298.89088270264 167.82783860678 296.68288270264 164.17983860678 296.68288270264 C 160.53183860678 296.68288270264 158.70783860678 298.89088270264 158.70783860678 303.30688270264 L 158.70783860678 339.97888270264 C 158.70783860678 344.39488270264 160.53183860678 346.60288270264 164.17983860678 346.60288270264 C 167.82783860678 346.60288270264 169.65183860678 344.39488270264 169.65183860678 339.97888270264 Z M 187.31583860678 288.04288270264 L 202.86783860678 288.04288270264 C 208.11583860678 288.04288270264 212.05183860678 289.45088270264 214.67583860678 292.26688270264 C 217.29983860678 295.08288270264 218.61183860678 299.21088270264 218.61183860678 304.65088270264 L 218.61183860678 311.27488270264 C 218.61183860678 316.71488270264 217.29983860678 320.84288270264 214.67583860678 323.65888270264 C 212.05183860678 326.47488270264 208.11583860678 327.88288270264 202.86783860678 327.88288270264 L 197.87583860678 327.88288270264 L 197.87583860678 355.24288270264 L 187.31583860678 355.24288270264 L 187.31583860678 288.04288270264 Z M 202.86783860678 318.28288270264 C 204.59583860678 318.28288270264 205.89183860678 317.80288270264 206.75583860678 316.84288270264 C 207.61983860678 315.88288270264 208.05183860678 314.25088270264 208.05183860678 311.94688270264 L 208.05183860678 303.97888270264 C 208.05183860678 301.67488270264 207.61983860678 300.04288270264 206.75583860678 299.08288270264 C 205.89183860678 298.12288270264 204.59583860678 297.64288270264 202.86783860678 297.64288270264 L 197.87583860678 297.64288270264 L 197.87583860678 318.28288270264 L 202.86783860678 318.28288270264 Z M 224.37183860678 288.04288270264 L 234.93183860678 288.04288270264 L 234.93183860678 355.24288270264 L 224.37183860678 355.24288270264 L 224.37183860678 288.04288270264 Z M 244.91583860678 351.83488270264 C 242.29183860678 348.92288270264 240.97983860678 344.74688270264 240.97983860678 339.30688270264 L 240.97983860678 335.46688270264 L 250.96383860678 335.46688270264 L 250.96383860678 340.07488270264 C 250.96383860678 344.42688270264 252.78783860678 346.60288270264 256.43583860678 346.60288270264 C 258.22783860678 346.60288270264 259.58783860678 346.07488270264 260.51583860678 345.01888270264 C 261.44383860678 343.96288270264 261.90783860678 342.25088270264 261.90783860678 339.88288270264 C 261.90783860678 337.06688270264 261.26783860678 334.58688270264 259.98783860678 332.44288270264 C 258.70783860678 330.29888270264 256.33983860678 327.72288270264 252.88383860678 324.71488270264 C 248.53183860678 320.87488270264 245.49183860678 317.40288270264 243.76383860678 314.29888270264 C 242.03583860678 311.19488270264 241.17183860678 307.69088270264 241.17183860678 303.78688270264 C 241.17183860678 298.47488270264 242.51583860678 294.36288270264 245.20383860678 291.45088270264 C 247.89183860678 288.53888270264 251.79583860678 287.08288270264 256.91583860678 287.08288270264 C 261.97183860678 287.08288270264 265.79583860678 288.53888270264 268.38783860678 291.45088270264 C 270.97983860678 294.36288270264 272.27583860678 298.53888270264 272.27583860678 303.97888270264 L 272.27583860678 306.76288270264 L 262.29183860678 306.76288270264 L 262.29183860678 303.30688270264 C 262.29183860678 301.00288270264 261.84383860678 299.32288270264 260.94783860678 298.26688270264 C 260.05183860678 297.21088270264 258.73983860678 296.68288270264 257.01183860678 296.68288270264 C 253.49183860678 296.68288270264 251.73183860678 298.82688270264 251.73183860678 303.11488270264 C 251.73183860678 305.54688270264 252.38783860678 307.81888270264 253.69983860678 309.93088270264 C 255.01183860678 312.04288270264 257.39583860678 314.60288270264 260.85183860678 317.61088270264 C 265.26783860678 321.45088270264 268.30783860678 324.93888270264 269.97183860678 328.07488270264 C 271.63583860678 331.21088270264 272.46783860678 334.89088270264 272.46783860678 339.11488270264 C 272.46783860678 344.61888270264 271.10783860678 348.84288270264 268.38783860678 351.78688270264 C 265.66783860678 354.73088270264 261.71583860678 356.20288270264 256.53183860678 356.20288270264 C 251.41183860678 356.20288270264 247.53983860678 354.74688270264 244.91583860678 351.83488270264 Z M 286.77183860678 297.64288270264 L 275.73183860678 297.64288270264 L 275.73183860678 288.04288270264 L 308.37183860678 288.04288270264 L 308.37183860678 297.64288270264 L 297.33183860678 297.64288270264 L 297.33183860678 355.24288270264 L 286.77183860678 355.24288270264 L 286.77183860678 297.64288270264 Z M 313.45983860678 288.04288270264 L 342.25983860678 288.04288270264 L 342.25983860678 297.64288270264 L 324.01983860678 297.64288270264 L 324.01983860678 315.40288270264 L 338.51583860678 315.40288270264 L 338.51583860678 325.00288270264 L 324.01983860678 325.00288270264 L 324.01983860678 345.64288270264 L 342.25983860678 345.64288270264 L 342.25983860678 355.24288270264 L 313.45983860678 355.24288270264 L 313.45983860678 288.04288270264 Z"/></svg>